HIERARCHY
ROOT Hips
{
   OFFSET 0.00000 0.00000 0.00000
   CHANNELS 6 Xposition Yposition Zposition Zrotation Xrotation Yrotation
   JOINT RightUpLeg
   {
      OFFSET -7.156640 -6.933656 0.081322
      CHANNELS 3 Zrotation Xrotation Yrotation
      JOINT RightLeg
      {
         OFFSET 0.000000 -35.538158 1.098160
         CHANNELS 3 Zrotation Xrotation Yrotation
         JOINT RightFoot
         {
            OFFSET 0.202839 -33.673920 -1.168472
            CHANNELS 3 Zrotation Xrotation Yrotation
            JOINT RightToes
            {
               OFFSET 0.032000 -3.532072 6.799280
               CHANNELS 3 Zrotation Xrotation Yrotation
               End Site
               {
                  OFFSET -0.064000 -0.109958 7.823832
               }
            }
         }
      }
   }
   JOINT Spine
   {
      OFFSET 0.000000 9.512400 0.000000
      CHANNELS 3 Zrotation Xrotation Yrotation
      JOINT Spine1
      {
         OFFSET 0.000000 20.525920 0.102130
         CHANNELS 3 Zrotation Xrotation Yrotation
         JOINT HEad
         {
            OFFSET 0.000000 6.987328 0.009073
            CHANNELS 3 Zrotation Xrotation Yrotation
            End Site
            {
               OFFSET -0.232000 10.219360 2.011160
            }
         }
         JOINT LeftShoulder1
         {
            OFFSET 7.192000 -0.289802 -0.176000
            CHANNELS 3 Zrotation Xrotation Yrotation
            JOINT LeftArm
            {
               OFFSET 8.226160 -0.002704 0.257698
               CHANNELS 3 Zrotation Xrotation Yrotation
               JOINT LeftForeArm
               {
                  OFFSET 26.213519 0.079315 -1.139472
                  CHANNELS 3 Zrotation Xrotation Yrotation
                  JOINT LeftHand
                  {
                     OFFSET 22.051441 0.068290 0.817728
                     CHANNELS 3 Zrotation Xrotation Yrotation
                     End Site
                     {
                        OFFSET 13.395442 -0.480000 1.202328
                     }
                  }
               }
            }
         }
         JOINT RightShoulder
         {
            OFFSET -7.192000 -0.289802 -0.176000
            CHANNELS 3 Zrotation Xrotation Yrotation
            JOINT RightArm
            {
               OFFSET -8.226160 -0.002704 0.257698
               CHANNELS 3 Zrotation Xrotation Yrotation
               JOINT RightForeArm
               {
                  OFFSET -26.317679 0.079315 -1.139472
                  CHANNELS 3 Zrotation Xrotation Yrotation
                  JOINT RightHand
                  {
                     OFFSET -21.993682 0.068290 0.817728
                     CHANNELS 3 Zrotation Xrotation Yrotation
                     End Site
                     {
                        OFFSET -13.304962 -0.480000 1.202328
                     }
                  }
               }
            }
         }
      }
   }
   JOINT LeftUpLeg
   {
      OFFSET 7.156640 -6.933656 0.081322
      CHANNELS 3 Zrotation Xrotation Yrotation
      JOINT LeftLeg
      {
         OFFSET 0.000000 -35.538158 1.098160
         CHANNELS 3 Zrotation Xrotation Yrotation
         JOINT LeftFoot
         {
            OFFSET -0.202839 -33.673920 -1.168472
            CHANNELS 3 Zrotation Xrotation Yrotation
            JOINT LeftToes
            {
               OFFSET -0.032000 -3.532072 6.799280
               CHANNELS 3 Zrotation Xrotation Yrotation
               End Site
               {
                  OFFSET 0.064000 -0.037958 7.823832
               }
            }
         }
      }
   }
}
MOTION
Frames: 13
Frame Time: 0.016667
-112.292736 75.123795 293.568778 -21.755937 -24.387382 -53.205374 -16.441616 8.816742 -122.392263 -28.151277 -21.335943 71.320145 -38.398241 39.183364 53.321518 -24.542029 -14.955404 -4.495042 3.824264 22.927149 -21.964256 -12.492217 23.942000 29.035920 -2.859543 3.758925 20.839580 -157.769679 -105.550281 -155.906308 -292.326496 -103.215073 -289.131306 -50.057415 89.579789 -41.819640 9.655626 8.763857 -8.136763 -38.010891 32.610776 49.644834 121.487058 -9.762734 170.268543 4.057831 49.245124 47.873496 -14.981909 5.522967 41.368980 2.205140 -8.428441 -118.097099 -16.731486 -8.611182 87.631279 -27.278107 -2.450294 65.967060 -13.313555 -17.306432 -15.401593
-110.135115 74.884638 292.432609 -22.177593 -24.273623 -52.767951 -14.389364 8.493282 -124.452781 -25.665645 -23.635668 72.280409 -39.310966 38.343097 53.160032 -24.732689 -12.958737 -2.395862 3.148541 24.136830 -20.251617 -11.871120 24.660287 27.797960 -1.672173 4.237946 19.267260 -155.212279 -105.887070 -155.185354 -294.436724 -101.543794 -291.283963 -50.274536 89.436266 -42.243931 9.261426 7.842354 -7.938574 -37.605037 35.107364 49.573783 122.706889 -5.860587 172.262630 3.952500 55.310302 46.674576 -8.536136 8.487944 34.794104 2.311311 -9.668995 -116.607571 -16.848665 -10.611478 87.782718 -26.272861 -0.916344 66.056214 -13.138975 -16.738075 -13.953774
-107.951411 74.732975 291.296649 -22.494398 -24.218239 -51.965319 -12.736429 7.155353 -126.461144 -23.853811 -25.374896 73.244517 -41.896093 38.560639 52.079110 -24.885051 -10.223093 0.102938 3.319214 26.043989 -18.702176 -10.851429 25.284069 26.731361 -0.091846 4.591951 17.719433 -152.521034 -105.293377 -154.219552 -296.154707 -100.550241 -291.988155 -51.024003 90.954398 -42.438322 8.785306 6.906671 -7.688848 -36.347849 36.117559 49.632994 123.596535 -1.520394 174.984693 3.820764 60.398707 45.727642 -12.395345 6.126611 40.052069 2.684246 -10.739921 -115.461192 -17.004651 -12.657463 87.593146 -25.980216 1.387735 65.789140 -12.896252 -15.938774 -12.484153
-105.639532 74.784626 289.982658 -23.697369 -24.497901 -51.730258 -14.123163 6.783002 -128.707402 -23.491855 -26.416616 73.186399 -26.873970 40.563769 48.914509 -24.814864 -5.621747 2.795182 3.337453 26.166096 -16.741074 -9.782710 27.360020 26.085391 1.943923 4.746065 16.222905 -150.159605 -104.627788 -152.690696 -297.556563 -99.082986 -291.118044 -60.811940 92.927681 -36.952631 10.769590 10.526214 -6.636016 -34.821817 38.118688 49.752215 124.147226 2.433315 176.973316 5.470799 66.091007 46.206776 -8.507598 7.013982 36.738645 3.946493 -10.881298 -114.431152 -17.056372 -15.183096 87.589397 -25.976581 4.536548 65.251147 -12.616976 -14.913921 -10.931105
-103.283575 74.681591 288.537193 -24.906935 -25.703189 -52.085595 -13.916190 5.881736 -132.195306 -21.584622 -27.158770 71.120082 -26.853290 43.720119 45.106235 -24.583608 -0.179084 4.656450 2.604591 26.304279 -14.364197 -9.537909 29.543519 25.624069 4.169663 4.992062 14.835968 -147.858665 -103.902354 -150.648510 -298.235046 -98.148329 -289.272773 -74.637124 93.409155 -29.323184 5.004705 0.109428 -9.083370 -33.127992 39.982599 49.339016 124.458232 6.548239 178.315148 6.837083 71.248681 46.276045 -11.448367 5.030352 40.543941 4.340845 -10.771714 -113.257835 -18.068594 -17.126556 87.111529 -26.404880 7.319800 64.142429 -12.291150 -13.915763 -9.572091
-101.001309 74.551529 287.047897 -25.576869 -26.119576 -52.486920 -14.566275 4.729317 -134.709157 -19.820080 -27.382884 69.152701 -21.799546 45.088100 42.667280 -24.657215 3.234213 6.899880 2.835019 27.018859 -12.967404 -8.955911 31.576545 24.428457 6.304157 5.061870 13.648074 -144.243937 -102.226581 -150.106740 -291.567771 -97.663208 -279.540682 -75.380543 96.302635 -28.422912 13.907397 17.607577 -5.715983 -31.404616 41.716121 48.886656 124.328390 11.083687 178.786772 8.351026 75.955337 46.306575 -9.831471 4.127025 38.514474 5.113348 -10.680212 -111.468243 -18.206183 -18.413247 86.558878 -28.245875 11.257091 63.477668 -11.957779 -12.177927 -7.722187
-98.684853 74.515117 285.505138 -26.261992 -27.186695 -53.145562 -15.011306 4.414340 -137.449156 -17.202209 -27.377201 67.354428 -23.443911 44.979220 41.841920 -24.882883 5.160125 9.467379 2.742819 26.550038 -11.634576 -8.767837 32.675290 23.009550 8.993604 4.787131 12.540637 -140.853158 -100.081177 -149.570433 -282.720518 -96.223937 -266.612036 -71.398358 99.736649 -34.485150 0.935552 -6.748602 -11.562712 -29.997767 43.121259 48.160091 124.598592 15.216369 178.026490 10.117428 80.427397 46.922184 -11.890609 2.276071 41.999267 5.526389 -9.943599 -108.972840 -18.302131 -19.590012 85.706771 -29.264471 13.701741 62.826033 -11.672505 -11.629974 -6.169060
-96.431750 74.611372 284.013286 -26.241747 -27.925245 -54.544210 -16.198366 4.057122 -140.731731 -13.696636 -27.437198 66.424833 -21.245618 44.696382 41.733234 -25.193310 6.240822 12.289931 1.774856 26.888694 -9.567524 -9.089226 33.086826 22.300568 11.409491 4.444994 11.743365 -137.787045 -98.178806 -149.048921 -277.933593 -94.654353 -259.579318 -66.948729 101.730600 -37.760359 12.923579 4.425888 -12.439898 -28.913396 44.483134 46.943911 126.118487 19.211548 176.291376 11.429090 84.247084 47.143701 -10.886811 1.011963 41.679296 5.328393 -9.459579 -106.327706 -18.313522 -19.575901 84.339804 -30.089032 15.464711 62.251615 -11.357848 -11.682297 -4.960741
-94.203461 74.880442 282.628189 -26.101237 -28.950730 -55.544946 -16.978530 3.704207 -144.642465 -9.966981 -26.675717 66.617813 -23.895728 44.442262 42.238184 -25.590047 6.659928 15.241613 0.998704 27.535814 -8.203513 -10.159345 32.770626 21.554298 12.167316 3.439285 12.955453 -134.956943 -96.615737 -147.715531 -277.489112 -93.521962 -257.287297 -65.495900 103.172617 -41.610349 3.581550 -1.103787 -10.889248 -28.978843 45.025392 45.750099 128.141616 22.685341 174.234560 10.069123 85.546371 46.097247 -10.802600 -1.323298 48.013177 5.178836 -8.274459 -104.786959 -17.422814 -20.399765 83.559114 -31.102025 16.570807 61.151647 -10.946244 -11.987898 -4.368497
-92.000464 75.303153 281.339393 -26.343452 -29.778136 -57.147097 -19.138576 4.187686 -147.508508 -7.331266 -25.920179 69.503049 -20.808013 44.704483 45.248849 -26.101722 6.219060 19.389922 0.958381 29.391288 -9.202270 -10.345931 31.436950 20.256480 10.929647 1.613006 15.935518 -132.618395 -95.884272 -144.891152 -278.826681 -93.524360 -258.927882 -62.732480 103.700235 -42.712991 9.785695 5.129135 -12.531393 -27.917377 45.393673 45.226968 131.819004 22.106066 172.127010 11.061634 88.020484 44.352745 -11.281738 2.137481 35.328296 5.287992 -8.152404 -104.282973 -18.777988 -21.943764 83.526575 -32.759606 17.772130 59.741848 -10.429168 -12.097295 -4.297689
-89.837264 75.882262 280.209251 -26.485213 -29.995503 -57.490617 -21.572434 4.844048 -149.035288 -5.971337 -25.547452 75.255393 -15.415250 44.908712 50.693466 -26.512851 4.580462 24.110657 2.164828 31.534457 -11.626596 -9.868145 30.945927 18.808563 9.574041 0.911102 19.995259 -130.814693 -95.060934 -141.496958 -282.150306 -93.521334 -262.494688 -62.289420 104.276286 -44.429776 2.733682 2.029710 -11.179812 -28.064564 44.865409 45.482076 133.933780 23.338937 171.504110 12.454447 91.314985 43.709434 -11.271691 -3.857117 51.872179 2.723755 -6.285899 -104.102936 -22.035292 -20.943322 80.462962 -24.687668 20.467572 58.762870 -9.748155 -11.707642 -4.865098
-87.565859 76.674365 279.032379 -25.843916 -29.621964 -58.832531 -23.055413 3.425389 -151.226932 -4.227822 -24.292135 80.124000 -17.865854 43.272844 55.203074 -26.794947 2.735281 27.089183 1.645232 33.293371 -12.492454 -8.876662 29.006287 17.872795 7.829244 -1.358701 24.951957 -129.305849 -95.258968 -138.312697 -287.323109 -92.073791 -267.708226 -61.676717 102.586142 -45.386798 5.987833 5.658724 -11.919558 -29.162702 43.779112 47.540449 134.863998 25.593713 170.040961 13.228767 95.495040 43.091329 -11.270469 6.079746 28.648006 1.033541 -6.006164 -103.206692 -25.859996 -21.313552 78.774006 -16.583235 22.469883 56.746520 -8.982125 -10.585417 -5.831273
-85.227317 77.581204 277.754722 -24.172135 -27.661826 -60.144788 -23.557293 -0.384127 -153.776450 -3.262437 -22.788839 85.025350 -20.573016 41.993017 58.161356 -26.936541 1.100053 28.503197 -0.579690 34.000781 -13.110301 -6.950894 30.482103 16.628524 6.662530 -5.574981 30.589692 -126.826982 -95.458997 -136.504773 -293.199913 -90.081692 -274.585189 -61.500628 100.966807 -45.860759 1.667296 3.983214 -10.500355 -32.321736 47.993919 42.155514 135.785677 37.610344 167.702400 16.038211 102.951797 44.120058 -8.007561 0.205772 43.910279 1.147612 -3.595614 -101.257896 -25.874830 -17.623927 74.275992 -25.887901 19.975599 55.307505 -8.355111 -10.809314 -6.686476
